<svg width="1118" height="471" viewBox="0 0 1118 471" fill="none" xmlns="http://www.w3.org/2000/svg">
<path d="M415.062 145.102L576.675 352.862H253.448L415.062 145.102Z" fill="url(#paint0_linear_48_46)"/>
<path d="M629.223 57.42L841.908 330.941H416.538L629.223 57.42Z" fill="url(#paint1_linear_48_46)"/>
<path d="M884.122 84.5782L1081.02 337.731H687.229L884.122 84.5782Z" fill="url(#paint2_linear_48_46)"/>
<mask id="mask0_48_46" style="mask-type:alpha" maskUnits="userSpaceOnUse" x="0" y="0" width="1118" height="471">
<rect x="0.317993" width="1117.36" height="471" fill="#D9D9D9"/>
</mask>
<g mask="url(#mask0_48_46)">
<g filter="url(#filter0_f_48_46)">
<path d="M1370.59 568.807C1370.59 521.604 1344.43 478.917 1302.2 442.321C1259.91 405.683 1199.78 373.506 1127.03 346.843C981.381 293.464 781.37 260.804 561.318 260.804C341.267 260.804 141.255 293.464 -4.39041 346.843C-77.1412 373.506 -137.278 405.683 -179.56 442.321C-221.794 478.917 -247.955 521.604 -247.955 568.807C-247.955 616.01 -221.794 658.697 -179.56 695.293C-137.278 731.931 -77.1411 764.108 -4.39034 790.771C141.255 844.15 341.267 876.81 561.318 876.81C781.37 876.81 981.381 844.15 1127.03 790.771C1199.78 764.108 1259.91 731.931 1302.2 695.293C1344.43 658.697 1370.59 616.01 1370.59 568.807Z" stroke="url(#paint3_linear_48_46)" stroke-width="36"/>
</g>
<g filter="url(#filter1_f_48_46)">
<path d="M1519.77 571.451C1519.77 527.609 1490.79 487.377 1442.08 452.09C1393.18 416.673 1322.94 385.11 1236.87 358.739C1064.62 305.968 827.143 273.448 565.182 273.448C303.221 273.448 65.7465 305.968 -106.503 358.739C-192.578 385.11 -262.818 416.673 -311.714 452.09C-360.431 487.377 -389.409 527.609 -389.409 571.451C-389.409 615.294 -360.431 655.526 -311.714 690.813C-262.818 726.23 -192.578 757.793 -106.503 784.164C65.7466 836.935 303.221 869.455 565.182 869.455C827.143 869.455 1064.62 836.935 1236.87 784.164C1322.94 757.793 1393.18 726.23 1442.08 690.813C1490.79 655.526 1519.77 615.294 1519.77 571.451Z" stroke="url(#paint4_linear_48_46)" stroke-width="16"/>
</g>
<g filter="url(#filter2_f_48_46)">
<ellipse cx="565.182" cy="568.807" rx="290.003" ry="946.591" transform="rotate(-90 565.182 568.807)" fill="url(#paint5_linear_48_46)"/>
</g>
<g filter="url(#filter3_f_48_46)">
<ellipse cx="557.455" cy="533.549" rx="290.003" ry="946.591" transform="rotate(-90 557.455 533.549)" fill="url(#paint6_linear_48_46)" fill-opacity="0.2"/>
</g>
<g filter="url(#filter4_f_48_46)">
<ellipse cx="498.468" cy="330.147" rx="498.468" ry="330.147" transform="matrix(-0.987168 -0.159686 0.864924 -0.501902 781.374 741.58)" fill="url(#paint7_linear_48_46)"/>
<ellipse cx="498.468" cy="330.147" rx="498.468" ry="330.147" transform="matrix(-0.987168 -0.159686 0.864924 -0.501902 781.374 741.58)" fill="url(#paint8_linear_48_46)" fill-opacity="0.2"/>
</g>
</g>
<defs>
<filter id="filter0_f_48_46" x="-287.955" y="220.804" width="1698.55" height="696.006" filterUnits="userSpaceOnUse" color-interpolation-filters="sRGB">
<feFlood flood-opacity="0" result="BackgroundImageFix"/>
<feBlend mode="normal" in="SourceGraphic" in2="BackgroundImageFix" result="shape"/>
<feGaussianBlur stdDeviation="11" result="effect1_foregroundBlur_48_46"/>
</filter>
<filter id="filter1_f_48_46" x="-419.409" y="243.448" width="1969.18" height="656.006" filterUnits="userSpaceOnUse" color-interpolation-filters="sRGB">
<feFlood flood-opacity="0" result="BackgroundImageFix"/>
<feBlend mode="normal" in="SourceGraphic" in2="BackgroundImageFix" result="shape"/>
<feGaussianBlur stdDeviation="11" result="effect1_foregroundBlur_48_46"/>
</filter>
<filter id="filter2_f_48_46" x="-435.409" y="224.804" width="2001.18" height="688.006" filterUnits="userSpaceOnUse" color-interpolation-filters="sRGB">
<feFlood flood-opacity="0" result="BackgroundImageFix"/>
<feBlend mode="normal" in="SourceGraphic" in2="BackgroundImageFix" result="shape"/>
<feGaussianBlur stdDeviation="27" result="effect1_foregroundBlur_48_46"/>
</filter>
<filter id="filter3_f_48_46" x="-475.137" y="157.545" width="2065.18" height="752.006" filterUnits="userSpaceOnUse" color-interpolation-filters="sRGB">
<feFlood flood-opacity="0" result="BackgroundImageFix"/>
<feBlend mode="normal" in="SourceGraphic" in2="BackgroundImageFix" result="shape"/>
<feGaussianBlur stdDeviation="43" result="effect1_foregroundBlur_48_46"/>
</filter>
<filter id="filter4_f_48_46" x="-269.164" y="37.4089" width="1688.04" height="917.741" filterUnits="userSpaceOnUse" color-interpolation-filters="sRGB">
<feFlood flood-opacity="0" result="BackgroundImageFix"/>
<feBlend mode="normal" in="SourceGraphic" in2="BackgroundImageFix" result="shape"/>
<feGaussianBlur stdDeviation="137.5" result="effect1_foregroundBlur_48_46"/>
</filter>
<linearGradient id="paint0_linear_48_46" x1="415.062" y1="145.102" x2="415.062" y2="422.115" gradientUnits="userSpaceOnUse">
<stop stop-color="#040404"/>
<stop offset="0.0001" stop-color="#D6C9B1"/>
<stop offset="1" stop-color="#040404" stop-opacity="0"/>
</linearGradient>
<linearGradient id="paint1_linear_48_46" x1="629.223" y1="57.42" x2="629.223" y2="422.115" gradientUnits="userSpaceOnUse">
<stop stop-color="#040404"/>
<stop offset="0.0001" stop-color="#D6C9B1"/>
<stop offset="1" stop-color="#040404" stop-opacity="0"/>
</linearGradient>
<linearGradient id="paint2_linear_48_46" x1="884.122" y1="84.5782" x2="884.122" y2="422.115" gradientUnits="userSpaceOnUse">
<stop stop-color="#040404"/>
<stop offset="0.0001" stop-color="#D6C9B1"/>
<stop offset="1" stop-color="#040404" stop-opacity="0"/>
</linearGradient>
<linearGradient id="paint3_linear_48_46" x1="271.688" y1="301.72" x2="744.457" y2="145.634" gradientUnits="userSpaceOnUse">
<stop offset="0.136839"/>
<stop offset="1" stop-color="#FFF6EE" stop-opacity="0.85"/>
</linearGradient>
<linearGradient id="paint4_linear_48_46" x1="218.7" y1="304.364" x2="761.278" y2="90.0687" gradientUnits="userSpaceOnUse">
<stop offset="0.136839"/>
<stop offset="1" stop-color="#FFF6EE" stop-opacity="0.85"/>
</linearGradient>
<linearGradient id="paint5_linear_48_46" x1="855.185" y1="377.082" x2="558.823" y2="797.686" gradientUnits="userSpaceOnUse">
<stop stop-color="#FFC58F"/>
<stop offset="0.348958" stop-color="#FFCA96"/>
<stop offset="1" stop-color="#FFF5E7"/>
</linearGradient>
<linearGradient id="paint6_linear_48_46" x1="847.458" y1="341.823" x2="551.096" y2="762.427" gradientUnits="userSpaceOnUse">
<stop stop-color="#FFE0C2"/>
<stop offset="1" stop-color="#FFF5E7"/>
</linearGradient>
<linearGradient id="paint7_linear_48_46" x1="999.109" y1="336.319" x2="717.801" y2="864.293" gradientUnits="userSpaceOnUse">
<stop offset="0.51845" stop-color="#040404"/>
<stop offset="1" stop-color="#ECC85D"/>
</linearGradient>
<linearGradient id="paint8_linear_48_46" x1="762.249" y1="525.701" x2="609.982" y2="739.656" gradientUnits="userSpaceOnUse">
<stop stop-color="#77340F"/>
<stop offset="1" stop-color="#FFECE1"/>
</linearGradient>
</defs>
</svg>
