<svg width="26" height="27" viewBox="0 0 26 27" fill="none" xmlns="http://www.w3.org/2000/svg">
<path d="M12.9044 1.07705C19.7024 1.07705 25.2132 6.5879 25.2132 13.3859C25.2132 20.1839 19.7024 25.6947 12.9044 25.6947C6.10643 25.6947 0.595579 20.1839 0.595579 13.3859C0.595579 6.5879 6.10643 1.07705 12.9044 1.07705Z" stroke="#D2C9B7" stroke-width="1.19116"/>
<path d="M18.0572 13.807C18.2897 13.5744 18.2897 13.1973 18.0572 12.9647L14.2669 9.17448C14.0343 8.94189 13.6572 8.94189 13.4246 9.17448C13.1921 9.40707 13.1921 9.78417 13.4246 10.0168L16.7937 13.3859L13.4246 16.755C13.1921 16.9876 13.1921 17.3647 13.4246 17.5972C13.6572 17.8298 14.0343 17.8298 14.2669 17.5972L18.0572 13.807ZM8.60294 13.9814L17.636 13.9814L17.636 12.7903L8.60294 12.7903L8.60294 13.9814Z" fill="#D2C9B7"/>
</svg>
